<mxfile host="Electron" agent="Mozilla/5.0 (Windows NT 10.0; Win64; x64) AppleWebKit/537.36 (KHTML, like Gecko) draw.io/24.7.17 Chrome/128.0.6613.36 Electron/32.0.1 Safari/537.36" version="24.7.17">
  <diagram name="Page-1" id="UoIOAxONnpl_ca5bM2pP">
    <mxGraphModel dx="669" dy="636" grid="1" gridSize="10" guides="1" tooltips="1" connect="1" arrows="1" fold="1" page="1" pageScale="1" pageWidth="827" pageHeight="1169" math="0" shadow="0">
      <root>
        <mxCell id="0" />
        <mxCell id="1" parent="0" />
        <mxCell id="AqjEKrrKFQz0EOPzmzg8-6" style="edgeStyle=orthogonalEdgeStyle;rounded=0;orthogonalLoop=1;jettySize=auto;html=1;exitX=0.5;exitY=1;exitDx=0;exitDy=0;" edge="1" parent="1" source="AqjEKrrKFQz0EOPzmzg8-1" target="AqjEKrrKFQz0EOPzmzg8-2">
          <mxGeometry relative="1" as="geometry" />
        </mxCell>
        <mxCell id="AqjEKrrKFQz0EOPzmzg8-1" value="checkpoint" style="ellipse;whiteSpace=wrap;html=1;" vertex="1" parent="1">
          <mxGeometry x="400" y="60" width="80" height="50" as="geometry" />
        </mxCell>
        <mxCell id="AqjEKrrKFQz0EOPzmzg8-5" style="edgeStyle=orthogonalEdgeStyle;rounded=0;orthogonalLoop=1;jettySize=auto;html=1;exitX=0.5;exitY=1;exitDx=0;exitDy=0;entryX=0.5;entryY=0;entryDx=0;entryDy=0;" edge="1" parent="1" source="AqjEKrrKFQz0EOPzmzg8-2" target="AqjEKrrKFQz0EOPzmzg8-2">
          <mxGeometry relative="1" as="geometry">
            <mxPoint x="440" y="170" as="targetPoint" />
            <Array as="points">
              <mxPoint x="440" y="260" />
              <mxPoint x="360" y="260" />
              <mxPoint x="360" y="150" />
              <mxPoint x="440" y="150" />
            </Array>
          </mxGeometry>
        </mxCell>
        <mxCell id="AqjEKrrKFQz0EOPzmzg8-2" value="vyšli svoje ID" style="rounded=1;whiteSpace=wrap;html=1;" vertex="1" parent="1">
          <mxGeometry x="395" y="170" width="90" height="40" as="geometry" />
        </mxCell>
        <mxCell id="AqjEKrrKFQz0EOPzmzg8-4" value="interval 5s+-1s" style="text;html=1;align=center;verticalAlign=middle;whiteSpace=wrap;rounded=0;" vertex="1" parent="1">
          <mxGeometry x="370" y="220" width="60" height="30" as="geometry" />
        </mxCell>
        <mxCell id="AqjEKrrKFQz0EOPzmzg8-18" style="edgeStyle=orthogonalEdgeStyle;rounded=0;orthogonalLoop=1;jettySize=auto;html=1;exitX=0.5;exitY=1;exitDx=0;exitDy=0;entryX=0.5;entryY=0;entryDx=0;entryDy=0;" edge="1" parent="1" source="AqjEKrrKFQz0EOPzmzg8-7" target="AqjEKrrKFQz0EOPzmzg8-9">
          <mxGeometry relative="1" as="geometry" />
        </mxCell>
        <mxCell id="AqjEKrrKFQz0EOPzmzg8-19" style="edgeStyle=orthogonalEdgeStyle;rounded=0;orthogonalLoop=1;jettySize=auto;html=1;exitX=0.5;exitY=1;exitDx=0;exitDy=0;" edge="1" parent="1" source="AqjEKrrKFQz0EOPzmzg8-7" target="AqjEKrrKFQz0EOPzmzg8-10">
          <mxGeometry relative="1" as="geometry" />
        </mxCell>
        <mxCell id="AqjEKrrKFQz0EOPzmzg8-7" value="&lt;div&gt;konec&lt;/div&gt;" style="ellipse;whiteSpace=wrap;html=1;" vertex="1" parent="1">
          <mxGeometry x="630" y="70" width="80" height="50" as="geometry" />
        </mxCell>
        <mxCell id="AqjEKrrKFQz0EOPzmzg8-20" style="edgeStyle=orthogonalEdgeStyle;rounded=0;orthogonalLoop=1;jettySize=auto;html=1;exitX=0.5;exitY=1;exitDx=0;exitDy=0;entryX=0.5;entryY=0;entryDx=0;entryDy=0;" edge="1" parent="1" source="AqjEKrrKFQz0EOPzmzg8-9" target="AqjEKrrKFQz0EOPzmzg8-17">
          <mxGeometry relative="1" as="geometry">
            <Array as="points">
              <mxPoint x="605" y="220" />
              <mxPoint x="555" y="220" />
            </Array>
          </mxGeometry>
        </mxCell>
        <mxCell id="AqjEKrrKFQz0EOPzmzg8-9" value="poikus se párovat" style="rounded=1;whiteSpace=wrap;html=1;" vertex="1" parent="1">
          <mxGeometry x="560" y="170" width="90" height="40" as="geometry" />
        </mxCell>
        <mxCell id="AqjEKrrKFQz0EOPzmzg8-21" style="edgeStyle=orthogonalEdgeStyle;rounded=0;orthogonalLoop=1;jettySize=auto;html=1;exitX=0.5;exitY=1;exitDx=0;exitDy=0;entryX=0.5;entryY=0;entryDx=0;entryDy=0;" edge="1" parent="1" source="AqjEKrrKFQz0EOPzmzg8-10" target="AqjEKrrKFQz0EOPzmzg8-14">
          <mxGeometry relative="1" as="geometry">
            <Array as="points">
              <mxPoint x="735" y="240" />
              <mxPoint x="665" y="240" />
            </Array>
          </mxGeometry>
        </mxCell>
        <mxCell id="AqjEKrrKFQz0EOPzmzg8-22" style="edgeStyle=orthogonalEdgeStyle;rounded=0;orthogonalLoop=1;jettySize=auto;html=1;exitX=0.5;exitY=1;exitDx=0;exitDy=0;entryX=0.5;entryY=0;entryDx=0;entryDy=0;" edge="1" parent="1" source="AqjEKrrKFQz0EOPzmzg8-10" target="AqjEKrrKFQz0EOPzmzg8-11">
          <mxGeometry relative="1" as="geometry">
            <Array as="points">
              <mxPoint x="735" y="240" />
              <mxPoint x="805" y="240" />
            </Array>
          </mxGeometry>
        </mxCell>
        <mxCell id="AqjEKrrKFQz0EOPzmzg8-10" value="spáruj se a dotaň data" style="rounded=1;whiteSpace=wrap;html=1;" vertex="1" parent="1">
          <mxGeometry x="690" y="170" width="90" height="40" as="geometry" />
        </mxCell>
        <mxCell id="AqjEKrrKFQz0EOPzmzg8-23" style="edgeStyle=orthogonalEdgeStyle;rounded=0;orthogonalLoop=1;jettySize=auto;html=1;exitX=0.5;exitY=1;exitDx=0;exitDy=0;entryX=0.5;entryY=0;entryDx=0;entryDy=0;" edge="1" parent="1" source="AqjEKrrKFQz0EOPzmzg8-11" target="AqjEKrrKFQz0EOPzmzg8-12">
          <mxGeometry relative="1" as="geometry" />
        </mxCell>
        <mxCell id="AqjEKrrKFQz0EOPzmzg8-11" value="otevři dvířka" style="rounded=1;whiteSpace=wrap;html=1;" vertex="1" parent="1">
          <mxGeometry x="760" y="250" width="90" height="40" as="geometry" />
        </mxCell>
        <mxCell id="AqjEKrrKFQz0EOPzmzg8-26" style="edgeStyle=orthogonalEdgeStyle;rounded=0;orthogonalLoop=1;jettySize=auto;html=1;exitX=0.5;exitY=1;exitDx=0;exitDy=0;entryX=0.5;entryY=0;entryDx=0;entryDy=0;" edge="1" parent="1" source="AqjEKrrKFQz0EOPzmzg8-12" target="AqjEKrrKFQz0EOPzmzg8-16">
          <mxGeometry relative="1" as="geometry" />
        </mxCell>
        <mxCell id="AqjEKrrKFQz0EOPzmzg8-12" value="odpoj se" style="rounded=1;whiteSpace=wrap;html=1;" vertex="1" parent="1">
          <mxGeometry x="760" y="320" width="90" height="40" as="geometry" />
        </mxCell>
        <mxCell id="AqjEKrrKFQz0EOPzmzg8-25" style="edgeStyle=orthogonalEdgeStyle;rounded=0;orthogonalLoop=1;jettySize=auto;html=1;exitX=0.5;exitY=1;exitDx=0;exitDy=0;entryX=0.5;entryY=0;entryDx=0;entryDy=0;" edge="1" parent="1" source="AqjEKrrKFQz0EOPzmzg8-13" target="AqjEKrrKFQz0EOPzmzg8-15">
          <mxGeometry relative="1" as="geometry" />
        </mxCell>
        <mxCell id="AqjEKrrKFQz0EOPzmzg8-13" value="odpoj se" style="rounded=1;whiteSpace=wrap;html=1;" vertex="1" parent="1">
          <mxGeometry x="620" y="320" width="90" height="40" as="geometry" />
        </mxCell>
        <mxCell id="AqjEKrrKFQz0EOPzmzg8-24" style="edgeStyle=orthogonalEdgeStyle;rounded=0;orthogonalLoop=1;jettySize=auto;html=1;exitX=0.5;exitY=1;exitDx=0;exitDy=0;entryX=0.5;entryY=0;entryDx=0;entryDy=0;" edge="1" parent="1" source="AqjEKrrKFQz0EOPzmzg8-14" target="AqjEKrrKFQz0EOPzmzg8-13">
          <mxGeometry relative="1" as="geometry" />
        </mxCell>
        <mxCell id="AqjEKrrKFQz0EOPzmzg8-14" value="zašli zprávu o chybě" style="rounded=1;whiteSpace=wrap;html=1;" vertex="1" parent="1">
          <mxGeometry x="620" y="250" width="90" height="40" as="geometry" />
        </mxCell>
        <mxCell id="AqjEKrrKFQz0EOPzmzg8-27" style="edgeStyle=orthogonalEdgeStyle;rounded=0;orthogonalLoop=1;jettySize=auto;html=1;exitX=0.5;exitY=1;exitDx=0;exitDy=0;entryX=0.5;entryY=0;entryDx=0;entryDy=0;" edge="1" parent="1" source="AqjEKrrKFQz0EOPzmzg8-15" target="AqjEKrrKFQz0EOPzmzg8-9">
          <mxGeometry relative="1" as="geometry">
            <Array as="points">
              <mxPoint x="665" y="450" />
              <mxPoint x="600" y="450" />
              <mxPoint x="600" y="300" />
              <mxPoint x="500" y="300" />
              <mxPoint x="500" y="130" />
              <mxPoint x="670" y="130" />
              <mxPoint x="670" y="150" />
              <mxPoint x="605" y="150" />
            </Array>
          </mxGeometry>
        </mxCell>
        <mxCell id="AqjEKrrKFQz0EOPzmzg8-15" value="přejdi do spánku" style="rounded=1;whiteSpace=wrap;html=1;" vertex="1" parent="1">
          <mxGeometry x="620" y="390" width="90" height="40" as="geometry" />
        </mxCell>
        <mxCell id="AqjEKrrKFQz0EOPzmzg8-28" style="edgeStyle=orthogonalEdgeStyle;rounded=0;orthogonalLoop=1;jettySize=auto;html=1;exitX=0.5;exitY=1;exitDx=0;exitDy=0;entryX=0.5;entryY=0;entryDx=0;entryDy=0;" edge="1" parent="1" source="AqjEKrrKFQz0EOPzmzg8-16" target="AqjEKrrKFQz0EOPzmzg8-10">
          <mxGeometry relative="1" as="geometry">
            <Array as="points">
              <mxPoint x="805" y="450" />
              <mxPoint x="600" y="450" />
              <mxPoint x="600" y="300" />
              <mxPoint x="500" y="300" />
              <mxPoint x="500" y="130" />
              <mxPoint x="670" y="130" />
              <mxPoint x="670" y="150" />
              <mxPoint x="735" y="150" />
            </Array>
          </mxGeometry>
        </mxCell>
        <mxCell id="AqjEKrrKFQz0EOPzmzg8-16" value="přejdi do spánku" style="rounded=1;whiteSpace=wrap;html=1;" vertex="1" parent="1">
          <mxGeometry x="760" y="390" width="90" height="40" as="geometry" />
        </mxCell>
        <mxCell id="AqjEKrrKFQz0EOPzmzg8-17" value="přejdi do spánku" style="rounded=1;whiteSpace=wrap;html=1;" vertex="1" parent="1">
          <mxGeometry x="510" y="230" width="90" height="40" as="geometry" />
        </mxCell>
        <mxCell id="AqjEKrrKFQz0EOPzmzg8-29" value="jsi spárován" style="text;html=1;align=center;verticalAlign=middle;whiteSpace=wrap;rounded=0;" vertex="1" parent="1">
          <mxGeometry x="677" y="120" width="80" height="30" as="geometry" />
        </mxCell>
        <mxCell id="AqjEKrrKFQz0EOPzmzg8-30" value="data jsou v pořádku" style="text;html=1;align=center;verticalAlign=middle;whiteSpace=wrap;rounded=0;" vertex="1" parent="1">
          <mxGeometry x="740" y="210" width="110" height="30" as="geometry" />
        </mxCell>
        <mxCell id="AqjEKrrKFQz0EOPzmzg8-38" style="edgeStyle=orthogonalEdgeStyle;rounded=0;orthogonalLoop=1;jettySize=auto;html=1;exitX=0.5;exitY=1;exitDx=0;exitDy=0;entryX=0.5;entryY=0;entryDx=0;entryDy=0;" edge="1" parent="1" source="AqjEKrrKFQz0EOPzmzg8-31" target="AqjEKrrKFQz0EOPzmzg8-37">
          <mxGeometry relative="1" as="geometry">
            <Array as="points">
              <mxPoint x="130" y="160" />
              <mxPoint x="230" y="160" />
              <mxPoint x="230" y="200" />
              <mxPoint x="300" y="200" />
            </Array>
          </mxGeometry>
        </mxCell>
        <mxCell id="AqjEKrrKFQz0EOPzmzg8-40" style="edgeStyle=orthogonalEdgeStyle;rounded=0;orthogonalLoop=1;jettySize=auto;html=1;exitX=0.5;exitY=1;exitDx=0;exitDy=0;entryX=0.5;entryY=0;entryDx=0;entryDy=0;" edge="1" parent="1" source="AqjEKrrKFQz0EOPzmzg8-31" target="AqjEKrrKFQz0EOPzmzg8-39">
          <mxGeometry relative="1" as="geometry">
            <Array as="points">
              <mxPoint x="130" y="160" />
              <mxPoint x="100" y="160" />
              <mxPoint x="100" y="230" />
              <mxPoint x="175" y="230" />
            </Array>
          </mxGeometry>
        </mxCell>
        <mxCell id="AqjEKrrKFQz0EOPzmzg8-49" style="edgeStyle=orthogonalEdgeStyle;rounded=0;orthogonalLoop=1;jettySize=auto;html=1;exitX=0.5;exitY=1;exitDx=0;exitDy=0;" edge="1" parent="1" source="AqjEKrrKFQz0EOPzmzg8-31" target="AqjEKrrKFQz0EOPzmzg8-42">
          <mxGeometry relative="1" as="geometry">
            <Array as="points">
              <mxPoint x="130" y="160" />
              <mxPoint x="100" y="160" />
              <mxPoint x="100" y="330" />
              <mxPoint x="70" y="330" />
            </Array>
          </mxGeometry>
        </mxCell>
        <mxCell id="AqjEKrrKFQz0EOPzmzg8-50" style="edgeStyle=orthogonalEdgeStyle;rounded=0;orthogonalLoop=1;jettySize=auto;html=1;exitX=0.5;exitY=1;exitDx=0;exitDy=0;" edge="1" parent="1" source="AqjEKrrKFQz0EOPzmzg8-31" target="AqjEKrrKFQz0EOPzmzg8-45">
          <mxGeometry relative="1" as="geometry">
            <Array as="points">
              <mxPoint x="130" y="160" />
              <mxPoint x="100" y="160" />
              <mxPoint x="100" y="330" />
              <mxPoint x="185" y="330" />
            </Array>
          </mxGeometry>
        </mxCell>
        <mxCell id="AqjEKrrKFQz0EOPzmzg8-31" value="&lt;div&gt;start&lt;/div&gt;" style="ellipse;whiteSpace=wrap;html=1;" vertex="1" parent="1">
          <mxGeometry x="90" y="60" width="80" height="50" as="geometry" />
        </mxCell>
        <mxCell id="AqjEKrrKFQz0EOPzmzg8-32" value="mod přípravy lovu zapnut" style="text;html=1;align=center;verticalAlign=middle;whiteSpace=wrap;rounded=0;" vertex="1" parent="1">
          <mxGeometry x="140" y="130" width="140" height="30" as="geometry" />
        </mxCell>
        <mxCell id="AqjEKrrKFQz0EOPzmzg8-33" value="tlačítkp prípravy podrženo" style="text;html=1;align=center;verticalAlign=middle;whiteSpace=wrap;rounded=0;" vertex="1" parent="1">
          <mxGeometry x="110" y="200" width="150" height="30" as="geometry" />
        </mxCell>
        <mxCell id="AqjEKrrKFQz0EOPzmzg8-35" value="jsi spárován" style="text;html=1;align=center;verticalAlign=middle;whiteSpace=wrap;rounded=0;" vertex="1" parent="1">
          <mxGeometry x="110" y="300" width="80" height="30" as="geometry" />
        </mxCell>
        <mxCell id="AqjEKrrKFQz0EOPzmzg8-36" value="tlačítko přidání bodu" style="text;html=1;align=center;verticalAlign=middle;whiteSpace=wrap;rounded=0;" vertex="1" parent="1">
          <mxGeometry x="230" y="170" width="120" height="30" as="geometry" />
        </mxCell>
        <mxCell id="AqjEKrrKFQz0EOPzmzg8-54" style="edgeStyle=orthogonalEdgeStyle;rounded=0;orthogonalLoop=1;jettySize=auto;html=1;exitX=0.5;exitY=1;exitDx=0;exitDy=0;entryX=0.5;entryY=0;entryDx=0;entryDy=0;" edge="1" parent="1" source="AqjEKrrKFQz0EOPzmzg8-37" target="AqjEKrrKFQz0EOPzmzg8-39">
          <mxGeometry relative="1" as="geometry">
            <Array as="points">
              <mxPoint x="300" y="300" />
              <mxPoint x="240" y="300" />
              <mxPoint x="240" y="530" />
              <mxPoint x="10" y="530" />
              <mxPoint x="10" y="130" />
              <mxPoint x="130" y="130" />
              <mxPoint x="130" y="160" />
              <mxPoint x="100" y="160" />
              <mxPoint x="100" y="230" />
              <mxPoint x="175" y="230" />
            </Array>
          </mxGeometry>
        </mxCell>
        <mxCell id="AqjEKrrKFQz0EOPzmzg8-37" value="získej a ulož gps data" style="rounded=1;whiteSpace=wrap;html=1;" vertex="1" parent="1">
          <mxGeometry x="255" y="220" width="90" height="40" as="geometry" />
        </mxCell>
        <mxCell id="AqjEKrrKFQz0EOPzmzg8-39" value="zapni mód přípravy" style="rounded=1;whiteSpace=wrap;html=1;" vertex="1" parent="1">
          <mxGeometry x="130" y="250" width="90" height="40" as="geometry" />
        </mxCell>
        <mxCell id="AqjEKrrKFQz0EOPzmzg8-41" style="edgeStyle=orthogonalEdgeStyle;rounded=0;orthogonalLoop=1;jettySize=auto;html=1;exitX=0.5;exitY=1;exitDx=0;exitDy=0;entryX=0.5;entryY=0;entryDx=0;entryDy=0;" edge="1" parent="1" source="AqjEKrrKFQz0EOPzmzg8-42" target="AqjEKrrKFQz0EOPzmzg8-43">
          <mxGeometry relative="1" as="geometry">
            <Array as="points">
              <mxPoint x="65" y="400" />
              <mxPoint x="65" y="400" />
            </Array>
          </mxGeometry>
        </mxCell>
        <mxCell id="AqjEKrrKFQz0EOPzmzg8-42" value="poikus se párovat" style="rounded=1;whiteSpace=wrap;html=1;" vertex="1" parent="1">
          <mxGeometry x="20" y="350" width="90" height="40" as="geometry" />
        </mxCell>
        <mxCell id="AqjEKrrKFQz0EOPzmzg8-53" style="edgeStyle=orthogonalEdgeStyle;rounded=0;orthogonalLoop=1;jettySize=auto;html=1;exitX=0.5;exitY=1;exitDx=0;exitDy=0;entryX=0.5;entryY=0;entryDx=0;entryDy=0;" edge="1" parent="1" source="AqjEKrrKFQz0EOPzmzg8-43" target="AqjEKrrKFQz0EOPzmzg8-39">
          <mxGeometry relative="1" as="geometry">
            <Array as="points">
              <mxPoint x="65" y="530" />
              <mxPoint x="10" y="530" />
              <mxPoint x="10" y="130" />
              <mxPoint x="130" y="130" />
              <mxPoint x="130" y="160" />
              <mxPoint x="100" y="160" />
              <mxPoint x="100" y="230" />
              <mxPoint x="175" y="230" />
            </Array>
          </mxGeometry>
        </mxCell>
        <mxCell id="AqjEKrrKFQz0EOPzmzg8-43" value="přejdi do spánku" style="rounded=1;whiteSpace=wrap;html=1;" vertex="1" parent="1">
          <mxGeometry x="20" y="410" width="90" height="40" as="geometry" />
        </mxCell>
        <mxCell id="AqjEKrrKFQz0EOPzmzg8-44" style="edgeStyle=orthogonalEdgeStyle;rounded=0;orthogonalLoop=1;jettySize=auto;html=1;exitX=0.5;exitY=1;exitDx=0;exitDy=0;entryX=0.5;entryY=0;entryDx=0;entryDy=0;" edge="1" parent="1" source="AqjEKrrKFQz0EOPzmzg8-45" target="AqjEKrrKFQz0EOPzmzg8-47">
          <mxGeometry relative="1" as="geometry" />
        </mxCell>
        <mxCell id="AqjEKrrKFQz0EOPzmzg8-45" value="pošli data" style="rounded=1;whiteSpace=wrap;html=1;" vertex="1" parent="1">
          <mxGeometry x="140" y="350" width="90" height="40" as="geometry" />
        </mxCell>
        <mxCell id="AqjEKrrKFQz0EOPzmzg8-46" style="edgeStyle=orthogonalEdgeStyle;rounded=0;orthogonalLoop=1;jettySize=auto;html=1;exitX=0.5;exitY=1;exitDx=0;exitDy=0;entryX=0.5;entryY=0;entryDx=0;entryDy=0;" edge="1" parent="1" source="AqjEKrrKFQz0EOPzmzg8-47" target="AqjEKrrKFQz0EOPzmzg8-48">
          <mxGeometry relative="1" as="geometry" />
        </mxCell>
        <mxCell id="AqjEKrrKFQz0EOPzmzg8-47" value="odpoj se" style="rounded=1;whiteSpace=wrap;html=1;" vertex="1" parent="1">
          <mxGeometry x="140" y="410" width="90" height="40" as="geometry" />
        </mxCell>
        <mxCell id="AqjEKrrKFQz0EOPzmzg8-52" style="edgeStyle=orthogonalEdgeStyle;rounded=0;orthogonalLoop=1;jettySize=auto;html=1;exitX=0.5;exitY=1;exitDx=0;exitDy=0;entryX=0.5;entryY=0;entryDx=0;entryDy=0;" edge="1" parent="1" source="AqjEKrrKFQz0EOPzmzg8-48" target="AqjEKrrKFQz0EOPzmzg8-39">
          <mxGeometry relative="1" as="geometry">
            <Array as="points">
              <mxPoint x="185" y="530" />
              <mxPoint x="10" y="530" />
              <mxPoint x="10" y="130" />
              <mxPoint x="130" y="130" />
              <mxPoint x="130" y="160" />
              <mxPoint x="100" y="160" />
              <mxPoint x="100" y="230" />
              <mxPoint x="175" y="230" />
            </Array>
          </mxGeometry>
        </mxCell>
        <mxCell id="AqjEKrrKFQz0EOPzmzg8-48" value="přejdi do spánku" style="rounded=1;whiteSpace=wrap;html=1;" vertex="1" parent="1">
          <mxGeometry x="140" y="470" width="90" height="40" as="geometry" />
        </mxCell>
        <mxCell id="AqjEKrrKFQz0EOPzmzg8-51" style="edgeStyle=orthogonalEdgeStyle;rounded=0;orthogonalLoop=1;jettySize=auto;html=1;exitX=0.5;exitY=1;exitDx=0;exitDy=0;entryX=0.5;entryY=0;entryDx=0;entryDy=0;" edge="1" parent="1" source="AqjEKrrKFQz0EOPzmzg8-39" target="AqjEKrrKFQz0EOPzmzg8-39">
          <mxGeometry relative="1" as="geometry">
            <Array as="points">
              <mxPoint x="175" y="300" />
              <mxPoint x="240" y="300" />
              <mxPoint x="240" y="530" />
              <mxPoint x="10" y="530" />
              <mxPoint x="10" y="130" />
              <mxPoint x="130" y="130" />
              <mxPoint x="130" y="160" />
              <mxPoint x="100" y="160" />
              <mxPoint x="100" y="230" />
              <mxPoint x="175" y="230" />
            </Array>
          </mxGeometry>
        </mxCell>
      </root>
    </mxGraphModel>
  </diagram>
</mxfile>
